<svg version="1.2" xmlns="http://www.w3.org/2000/svg" viewBox="0 0 1020 757" width="1020" height="757">
	<style>
		.s0 { fill: #00aa4e } 
	</style>
	<g id="Layer 1">
		<g id="&lt;Group&gt;">
			<path id="&lt;Compound Path&gt;" fill-rule="evenodd" class="s0" d="m173.02 24.16c41 0 74.79 9.47 100.47 27.94v26.58c-26.58-18.47-61.72-27.93-100.47-27.93-81.55 0-144.63 62.62-144.63 141.92 0 81.55 59.92 143.28 140.57 143.28 73.44 0 117.15-43.7 117.15-113.99v-24.33h-113.99v-26.13h139.22v45.95c0 89.66-54.07 145.08-142.38 145.08-96.87 0-168.96-72.54-168.96-169.86 0-94.16 75.25-168.51 173.02-168.51zm0 40.1c43.25 0 79.3 14.42 100.47 29.29v25.23l-1.8 1.35c-28.38-19.82-59.02-29.28-97.77-29.28-59.47 0-102.73 43.7-102.73 101.82 0 60.38 40.1 103.18 97.77 103.18 52.27 0 76.6-31.09 76.15-57.67h-72.99v-27.03h100.47v17.57c0 49.11-34.69 93.71-103.63 93.71-71.64 0-127.05-56.32-127.05-129.76 0-71.64 57.67-128.41 131.11-128.41zm156.34 151.84c0-70.74 45.06-118.5 115.8-118.5 24.33 0 46.85 6.76 63.53 18.48-7.21 5.85-12.62 12.16-17.58 18.02-8.11-4.96-26.58-10.81-44.6-10.81-53.62 0-90.56 37.39-90.56 92.36v139.22h-26.59zm116.7-80.2c13.51 0 27.48 4.06 36.94 10.37-4.5 6.76-8.11 13.96-11.71 22.53-8.56-3.61-16.67-5.86-25.68-5.86-30.19 0-50.47 22.08-50.47 53.16v138.78h-26.58v-139.23c0-46.85 31.99-79.75 77.5-79.75zm445.15-40.55c73.89 0 127.96 57.23 127.96 133.37 0 75.24-53.62 133.82-126.61 133.82-56.77 0-100.47-33.8-115.34-76.6l18.92-25.68c9.46 43.7 50.01 75.69 96.87 75.69 57.67 0 99.58-46.4 99.58-107.23 0-62.18-42.81-106.33-101.38-106.33-43.25 0-71.19 21.62-103.18 60.82-12.61 15.32-26.13 33.8-41.9 54.97v-39.2c33.34-46.4 68.48-103.63 145.08-103.63zm-62.63 127.51c0 38.75 26.59 73.44 64.43 73.44 36.05 0 59.93-28.83 59.93-68.03 0-37.85-25.23-66.23-62.18-66.23-37.85 0-55.87 27.03-85.61 62.62-17.57 21.18-41.45 51.82-59.02 77.95v-43.25c18.92-26.59 36.04-47.76 45.96-60.83 20.27-27.03 49.11-63.53 99.12-63.53 51.36 0 88.76 39.65 88.76 93.27 0 53.62-36.5 94.62-86.96 94.62-49.56 0-82.45-43.26-86.05-75.7l20.72-28.38h0.9zm0-222.13v94.62c-9.46 3.6-18.47 11.26-26.58 17.57v-112.19zm-66.23 0h26.58v122.1c-9.46 9.46-18.47 20.73-26.58 31.09zm-156.35 94.17c74.8 0 127.51 54.97 127.51 129.76v130.21h-27.03v-129.76c0-59.92-42.35-102.73-100.48-102.73-58.57 0-102.72 45.51-102.72 106.33 0 63.98 41.45 107.24 102.72 107.24 20.28 0 40.1-7.66 48.21-14.42v26.58c-12.16 9.46-31.54 14.42-48.21 14.42-74.79 0-130.21-55.42-130.21-133.82 0-75.69 56.77-133.81 130.21-133.81zm48.21 214.01c-9.01 6.31-28.83 13.52-48.21 13.97-51.36 1.35-90.11-38.3-90.11-93.71 0-55.87 39.2-94.17 90.11-94.17 51.37 0 87.86 38.3 87.86 90.56v129.31h-26.58v-127.96c0-37.39-23.43-65.33-61.73-65.33-35.59 0-62.17 29.29-62.17 67.59 0 40.1 27.03 67.13 63.07 67.13 17.58 0 36.05-5.41 47.31-14.42l0.45 0.45z"/>
			<g id="&lt;Group&gt;">
				<path id="&lt;Compound Path&gt;" class="s0" d="m66.24 486.87v95.14h126.13v46.5h-126.13v121.83h-50.37v-309.97h191.13v46.5z"/>
				<path id="&lt;Compound Path&gt;" fill-rule="evenodd" class="s0" d="m463.98 631.08c0 75.35-49.08 125.71-120.97 125.71-71.9 0-121.4-50.36-121.4-125.71 0-75.33 49.5-126.13 121.4-126.13 71.89 0 120.97 50.8 120.97 126.13zm-120.97-79.2c-41.33 0-71.9 32.72-71.9 79.2 0 46.5 30.57 78.79 71.9 78.79 41.33 0 71.46-32.29 71.46-78.79 0-46.48-30.13-79.2-71.46-79.2z"/>
				<path id="&lt;Compound Path&gt;" fill-rule="evenodd" class="s0" d="m733.86 631.08c0 75.35-49.08 125.71-120.97 125.71-71.9 0-121.4-50.36-121.4-125.71 0-75.33 49.5-126.13 121.4-126.13 71.89 0 120.97 50.8 120.97 126.13zm-120.97-79.2c-41.33 0-71.9 32.72-71.9 79.2 0 46.5 30.57 78.79 71.9 78.79 41.33 0 71.46-32.29 71.46-78.79 0-46.48-30.13-79.2-71.46-79.2z"/>
				<path id="&lt;Compound Path&gt;" fill-rule="evenodd" class="s0" d="m875.02 504.95c36.16 0 63.71 13.78 76.62 41.33h2.15v-131.73h49.51v214.38c0 76.2-48.64 127.86-120.54 127.86-71.46 0-121.4-51.22-121.4-126.13 0-73.61 46.5-125.71 113.66-125.71zm7.74 204.92c41.33 0 71.03-33.58 71.03-81.79 0-49.95-32.28-76.2-71.89-76.2-41.33 0-71.03 29.27-71.03 77.05 0 49.51 32.29 80.94 71.89 80.94z"/>
			</g>
		</g>
	</g>
</svg>