<?xml version="1.0" encoding="UTF-8"?><svg id="Layer_1" xmlns="http://www.w3.org/2000/svg" viewBox="0 0 272.25 100"><defs><style>.cls-1{fill:#fff;}.cls-1,.cls-2{fill-rule:evenodd;}.cls-2,.cls-3{fill:#ff4d00;}.cls-4{fill:#ee4e2c;}</style></defs><path class="cls-3" d="M124.24,99.23v-49.83h30.32v9.68h-20.14v10.32h15.79v9.69h-15.79v20.14h-10.18Z"/><path class="cls-3" d="M186.21,94.7c-3.6,3.53-7.96,5.3-13.05,5.3s-9.45-1.77-13.05-5.3c-3.6-3.53-5.4-7.87-5.4-13.02s1.8-9.43,5.4-12.98c3.6-3.55,7.95-5.33,13.05-5.33s9.45,1.78,13.05,5.33c3.6,3.56,5.4,7.88,5.4,12.98s-1.8,9.49-5.4,13.02ZM173.15,91.02c2.48,0,4.55-.88,6.21-2.63,1.66-1.75,2.49-3.99,2.49-6.7s-.83-4.95-2.49-6.7c-1.66-1.75-3.73-2.63-6.21-2.63s-4.62.88-6.28,2.63c-1.66,1.75-2.49,3.99-2.49,6.7s.83,4.95,2.49,6.7c1.66,1.75,3.75,2.63,6.28,2.63Z"/><path class="cls-3" d="M226.84,94.7c-3.6,3.53-7.95,5.3-13.05,5.3s-9.45-1.77-13.05-5.3c-3.6-3.53-5.4-7.87-5.4-13.02s1.8-9.43,5.4-12.98c3.6-3.55,7.95-5.33,13.05-5.33s9.45,1.78,13.05,5.33c3.6,3.56,5.4,7.88,5.4,12.98s-1.8,9.49-5.4,13.02ZM213.79,91.02c2.48,0,4.55-.88,6.21-2.63,1.66-1.75,2.49-3.99,2.49-6.7s-.83-4.95-2.49-6.7c-1.66-1.75-3.73-2.63-6.21-2.63s-4.62.88-6.28,2.63c-1.66,1.75-2.49,3.99-2.49,6.7s.83,4.95,2.49,6.7c1.66,1.75,3.75,2.63,6.28,2.63Z"/><path class="cls-3" d="M252.53,100c-4.63,0-8.54-1.8-11.72-5.4-3.18-3.6-4.77-7.91-4.77-12.91s1.59-9.31,4.77-12.91c3.18-3.6,7.09-5.4,11.72-5.4,2.25,0,4.26.47,6.04,1.4,1.78.94,3.13,2.03,4.07,3.3v-21.47h9.61v52.64h-9.61v-3.93c-.94,1.26-2.29,2.36-4.07,3.3-1.78.94-3.79,1.4-6.04,1.4ZM248.14,88.56c1.61,1.78,3.75,2.67,6.42,2.67s4.81-.89,6.42-2.67c1.61-1.78,2.42-4.07,2.42-6.88s-.81-5.1-2.42-6.88c-1.61-1.78-3.75-2.67-6.42-2.67s-4.81.89-6.42,2.67c-1.61,1.78-2.42,4.07-2.42,6.88s.81,5.1,2.42,6.88Z"/><path class="cls-2" d="M271.11,25.12s.03,0,.05,0c.61-.03,1.09-.55,1.09-1.18,0-.03,0-.06,0-.1,0,0,0-.02,0-.07,0-5.96-4.68-10.8-10.44-10.8s-10.44,4.83-10.44,10.8c0,.44.03.89.08,1.33v.02s.02.12.02.12c.29,2.15,1.2,4.12,2.65,5.71,0,0,0,0,0,0,1.6,1.76,3.78,2.97,6.2,3.42h.03s0,0,0,0l.16.03c.08.01.17.03.28.04,3.18.38,6-.08,8.38-1.28.59-.3,1.12-.62,1.57-.97.15-.11.28-.22.39-.32.06-.05.11-.1.13-.12.54-.55.57-.75.25-1.26-.36-.57-.67-1.05-.94-1.46-.09-.14-.18-.26-.25-.36q-.04-.05-.06-.09s0-.01-.02-.02h0c-.29-.37-.5-.4-.82-.12-.03.03-.15.12-.17.14-2.3,2.04-5.43,2.7-8.56,2.04-.58-.16-1.13-.36-1.63-.6-1.96-.98-3.35-2.74-3.75-4.77l-.03-.16h15.8s.02,0,.04,0ZM255.5,21.38l.05-.17h0c.83-2.7,3.33-4.5,6.25-4.5s5.44,1.89,6.36,4.5l.06.18h-12.73Z"/><path class="cls-2" d="M246.26,25.12s.03,0,.05,0c.61-.03,1.09-.55,1.09-1.18,0-.03,0-.06,0-.1,0,0,0-.02,0-.07,0-5.96-4.68-10.8-10.44-10.8s-10.44,4.83-10.44,10.8c0,.44.03.89.08,1.33v.02s.02.12.02.12c.29,2.15,1.2,4.12,2.65,5.71,0,0,0,0,0,0,1.6,1.76,3.78,2.97,6.2,3.42h.03s0,0,0,0l.16.03c.08.01.17.03.28.04,3.18.38,6-.08,8.38-1.28.59-.3,1.12-.62,1.57-.97.15-.11.28-.22.39-.32.06-.05.11-.1.13-.12.54-.55.57-.75.25-1.26-.36-.57-.67-1.05-.94-1.46-.09-.14-.18-.26-.25-.36q-.04-.05-.06-.09s0-.01-.02-.02h0c-.29-.37-.5-.4-.82-.12-.03.03-.15.12-.17.14-2.3,2.04-5.43,2.7-8.56,2.04-.58-.16-1.13-.36-1.63-.6-1.96-.98-3.35-2.74-3.75-4.77l-.03-.16h15.8s.02,0,.04,0ZM230.65,21.38l.05-.17c.83-2.7,3.33-4.5,6.25-4.5s5.44,1.89,6.36,4.5l.06.18h-12.73Z"/><path class="cls-2" d="M211.74,13.05h0c-2.55,0-4.98.87-6.94,2.46l-.22.18v-1.99c0-.53-.11-.65-.65-.65h-2.5c-.54,0-.65.11-.65.65v31.75c0,.52.12.65.65.65h2.5c.53,0,.65-.12.65-.65v-13.24l.22.18c1.96,1.59,4.39,2.46,6.94,2.46,6.05,0,10.96-4.88,10.96-10.9s-4.91-10.9-10.96-10.9ZM211.74,31.06h0c-3.88,0-7.06-3.08-7.16-6.94v-.36c.1-3.85,3.27-6.93,7.16-6.93s7.16,3.19,7.16,7.12-3.21,7.12-7.16,7.12Z"/><path class="cls-2" d="M186,12.96c-6.07,0-10.98,4.84-10.98,10.8s4.92,10.8,10.98,10.8,10.98-4.84,10.98-10.8-4.92-10.8-10.98-10.8ZM186,30.82c-3.96,0-7.17-3.16-7.17-7.06s3.21-7.06,7.17-7.06,7.17,3.16,7.17,7.06-3.21,7.06-7.17,7.06Z"/><path class="cls-2" d="M161.51,13.2c-2.21,0-4.36.71-6.14,2.03l-.22.16V.65c0-.49-.16-.65-.65-.65h-2.62c-.53,0-.65.13-.65.65v33.63c0,.51.13.65.65.65h2.62c.49,0,.65-.17.65-.65v-10.99c.03-3.46,2.86-6.25,6.35-6.25s6.34,2.81,6.35,6.27v10.96c0,.56.09.65.65.65h2.61c.55,0,.65-.09.65-.65v-10.99c-.02-5.55-4.64-10.09-10.26-10.09"/><path class="cls-2" d="M125.05,28.83h0c-.37.57-.53.81-.62.95-.29.44-.26.63.19,1.01,1.05.85,2.4,1.73,3.31,2.18,2.53,1.24,5.26,1.89,8.16,1.95,1.87.09,4.22-.35,5.97-1.13,3.17-1.41,5.18-4.17,5.54-7.56.57-5.5-3-8.93-12.21-11.7h0c-4.29-1.38-6.31-3.22-6.31-5.79.13-2.84,2.76-4.96,6.31-5.09,2.86,0,5.39.77,7.87,2.37.52.32.77.26,1.12-.2.04-.07.15-.23.62-.91h0c.44-.63.58-.84.62-.91.3-.56.25-.77-.28-1.15-.53-.38-2.01-1.15-2.86-1.49-2.36-.94-4.81-1.4-7.24-1.35-5.54.12-9.85,3.72-10.14,8.44-.18,3.41,1.55,6.16,5.17,8.18,1.01.54,4.72,1.94,6.45,2.44,4.92,1.44,7.49,4.09,6.96,7.22-.48,2.84-3.46,4.73-7.64,4.86-3.03-.06-6.08-1.17-8.73-3.17-.01,0-.08-.06-.2-.15q-.17-.13-.2-.15c-.54-.37-.86-.34-1.19.15-.04.06-.45.68-.65.99"/><path class="cls-4" d="M83.01,0H12.9L0,18.85s2.72,54.57,2.72,72.94c0,2.96,3.69,8.21,6.6,8.21h77.26c2.92,0,6.6-5.25,6.6-8.21,0-18.36,2.72-72.94,2.72-72.94L83.01,0ZM68.54,20.26H27.37v-9.3c0-1.64,1.33-2.98,2.98-2.98h35.22c1.64,0,2.98,1.33,2.98,2.98v9.3Z"/><path class="cls-1" d="M38.81,64.7c.02,1.22-6.47,8.19-6.47,8.19l-1,27.11h-7.32l-1.01-27.11s-6.49-6.96-6.47-8.19c.02-.87,0-2.07,0-2.07l.66-29.41c0-.37.3-.68.68-.68h2.57c.09,0,.17.03.23.07.4.07.79.23.88.62,0,0,.02,0,.02,0v.13s0,.61,0,.61c0,0,.12,5.95.24,11.99.13,6.05.27,12.18.29,12.55.13.16,1.06,1.06,1.93,1.03.87-.03,1.88-1.06,1.88-1.06v-24.92c0-.95,1.37-1.03,1.37-1.03h.77s1.36.09,1.36,1.03v24.92s1.01,1.03,1.88,1.06c.87.03,1.8-.87,1.94-1.03.05-.73.52-24.54.52-24.54l.02-.61v-.13s0,0,0,0c.09-.39.48-.55.88-.62.07-.04.14-.07.23-.07h2.57c.37,0,.69.3.69.68l.65,29.41s0,1.19,0,2.07Z"/><path class="cls-1" d="M79.37,52.58c0,10.88-6.99,18.55-9.98,21.34-.82.76-1.37,1.91-1.43,3.16-.23,5.49-.87,20.53-.98,22.92h-6.52c-.11-2.4-.75-17.43-.98-22.92-.05-1.25-.61-2.4-1.43-3.16-2.99-2.79-9.98-10.46-9.98-21.34,0-13.84,9.51-19.96,15.64-19.96s15.65,6.13,15.65,19.96Z"/></svg>